{
	"asset":{
		"generator":"Khronos glTF Blender I/O v4.2.70",
		"version":"2.0"
	},
	"scene":0,
	"scenes":[
		{
			"name":"Scene",
			"nodes":[
				0,
				1,
				2,
				3,
				4,
				5,
				6,
				7,
				8,
				9,
				10,
				11,
				12
			]
		}
	],
	"nodes":[
		{
			"mesh":0,
			"name":"model_0",
			"rotation":[
				0.7071068286895752,
				0,
				0,
				0.7071068286895752
			],
			"scale":[
				0.3587430715560913,
				0.3587430715560913,
				0.3587430715560913
			],
			"translation":[
				0.18670862913131714,
				0.2704209089279175,
				-0.04605388268828392
			]
		},
		{
			"mesh":1,
			"name":"model_1",
			"rotation":[
				0.7071068286895752,
				0,
				0,
				0.7071068286895752
			],
			"scale":[
				0.3587430715560913,
				0.3587430715560913,
				0.3587430715560913
			],
			"translation":[
				0.18670862913131714,
				0.2704209089279175,
				-0.04605388268828392
			]
		},
		{
			"mesh":2,
			"name":"model_2",
			"rotation":[
				0.7071068286895752,
				0,
				0,
				0.7071068286895752
			],
			"scale":[
				0.3587430715560913,
				0.3587430715560913,
				0.3587430715560913
			],
			"translation":[
				0.18670862913131714,
				0.2704209089279175,
				-0.04605388268828392
			]
		},
		{
			"mesh":3,
			"name":"model_3",
			"rotation":[
				0.7071068286895752,
				0,
				0,
				0.7071068286895752
			],
			"scale":[
				0.3587430715560913,
				0.3587430715560913,
				0.3587430715560913
			],
			"translation":[
				0.18670862913131714,
				0.2704209089279175,
				-0.04605388268828392
			]
		},
		{
			"mesh":4,
			"name":"model_4",
			"rotation":[
				0.7071068286895752,
				0,
				0,
				0.7071068286895752
			],
			"scale":[
				0.3587430715560913,
				0.3587430715560913,
				0.3587430715560913
			],
			"translation":[
				0.18670862913131714,
				0.2704209089279175,
				-0.04605388268828392
			]
		},
		{
			"mesh":5,
			"name":"model_5",
			"rotation":[
				0.7071068286895752,
				0,
				0,
				0.7071068286895752
			],
			"scale":[
				0.3587430715560913,
				0.3587430715560913,
				0.3587430715560913
			],
			"translation":[
				0.18670862913131714,
				0.2704209089279175,
				-0.04605388268828392
			]
		},
		{
			"mesh":6,
			"name":"model_6",
			"rotation":[
				0.7071068286895752,
				0,
				0,
				0.7071068286895752
			],
			"scale":[
				0.3587430715560913,
				0.3587430715560913,
				0.3587430715560913
			],
			"translation":[
				0.18670862913131714,
				0.2704209089279175,
				-0.04605388268828392
			]
		},
		{
			"mesh":7,
			"name":"model_7",
			"rotation":[
				0.7071068286895752,
				0,
				0,
				0.7071068286895752
			],
			"scale":[
				0.3587430715560913,
				0.3587430715560913,
				0.3587430715560913
			],
			"translation":[
				0.18670862913131714,
				0.2704209089279175,
				-0.04605388268828392
			]
		},
		{
			"mesh":8,
			"name":"model_8",
			"rotation":[
				0.7071068286895752,
				0,
				0,
				0.7071068286895752
			],
			"scale":[
				0.3587430715560913,
				0.3587430715560913,
				0.3587430715560913
			],
			"translation":[
				0.18670862913131714,
				0.2704209089279175,
				-0.04605388268828392
			]
		},
		{
			"mesh":9,
			"name":"model_9",
			"rotation":[
				0.7071068286895752,
				0,
				0,
				0.7071068286895752
			],
			"scale":[
				0.3587430715560913,
				0.3587430715560913,
				0.3587430715560913
			],
			"translation":[
				0.18670862913131714,
				0.2704209089279175,
				-0.04605388268828392
			]
		},
		{
			"mesh":10,
			"name":"model_10",
			"rotation":[
				0.7071068286895752,
				0,
				0,
				0.7071068286895752
			],
			"scale":[
				0.3587430715560913,
				0.3587430715560913,
				0.3587430715560913
			],
			"translation":[
				0.18670862913131714,
				0.2704209089279175,
				-0.04605388268828392
			]
		},
		{
			"mesh":11,
			"name":"model_11",
			"rotation":[
				0.7071068286895752,
				0,
				0,
				0.7071068286895752
			],
			"scale":[
				0.3587430715560913,
				0.3587430715560913,
				0.3587430715560913
			],
			"translation":[
				0.18670862913131714,
				0.2704209089279175,
				-0.04605388268828392
			]
		},
		{
			"mesh":12,
			"name":"model_12",
			"rotation":[
				0.7071068286895752,
				0,
				0,
				0.7071068286895752
			],
			"scale":[
				0.3587430715560913,
				0.3587430715560913,
				0.3587430715560913
			],
			"translation":[
				0.18670862913131714,
				0.2704209089279175,
				-0.04605388268828392
			]
		}
	],
	"materials":[
		{
			"doubleSided":true,
			"name":"Material.002",
			"pbrMetallicRoughness":{
				"baseColorTexture":{
					"index":0
				},
				"metallicFactor":0,
				"roughnessFactor":0.5
			}
		},
		{
			"doubleSided":true,
			"name":"Material.001",
			"pbrMetallicRoughness":{
				"baseColorTexture":{
					"index":1
				},
				"metallicFactor":0,
				"roughnessFactor":0.5
			}
		},
		{
			"doubleSided":true,
			"name":"Material.003",
			"pbrMetallicRoughness":{
				"baseColorTexture":{
					"index":2
				},
				"metallicFactor":0,
				"roughnessFactor":0.5
			}
		},
		{
			"doubleSided":true,
			"name":"Material.006",
			"pbrMetallicRoughness":{
				"baseColorTexture":{
					"index":3
				},
				"metallicFactor":0,
				"roughnessFactor":0.5
			}
		},
		{
			"doubleSided":true,
			"name":"Material.005",
			"pbrMetallicRoughness":{
				"baseColorTexture":{
					"index":4
				},
				"metallicFactor":0,
				"roughnessFactor":0.5
			}
		},
		{
			"doubleSided":true,
			"name":"Material.007",
			"pbrMetallicRoughness":{
				"baseColorTexture":{
					"index":5
				},
				"metallicFactor":0,
				"roughnessFactor":0.5
			}
		},
		{
			"doubleSided":true,
			"name":"Material.004",
			"pbrMetallicRoughness":{
				"baseColorTexture":{
					"index":6
				},
				"metallicFactor":0,
				"roughnessFactor":0.5
			}
		},
		{
			"doubleSided":true,
			"name":"Material.008",
			"pbrMetallicRoughness":{
				"baseColorFactor":[
					0.8001892566680908,
					0.015576276928186417,
					0.007233675569295883,
					1
				],
				"metallicFactor":0,
				"roughnessFactor":0.5
			}
		}
	],
	"meshes":[
		{
			"name":"model_0",
			"primitives":[
				{
					"attributes":{
						"POSITION":0,
						"NORMAL":1,
						"TEXCOORD_0":2
					},
					"indices":3,
					"material":0
				}
			]
		},
		{
			"name":"model_1",
			"primitives":[
				{
					"attributes":{
						"POSITION":4,
						"NORMAL":5,
						"TEXCOORD_0":6
					},
					"indices":7,
					"material":1
				}
			]
		},
		{
			"name":"model_2",
			"primitives":[
				{
					"attributes":{
						"POSITION":8,
						"NORMAL":9
					},
					"indices":10
				}
			]
		},
		{
			"name":"model_3",
			"primitives":[
				{
					"attributes":{
						"POSITION":11,
						"NORMAL":12,
						"TEXCOORD_0":13
					},
					"indices":14,
					"material":2
				}
			]
		},
		{
			"name":"model_4",
			"primitives":[
				{
					"attributes":{
						"POSITION":15,
						"NORMAL":16,
						"TEXCOORD_0":17
					},
					"indices":18,
					"material":3
				}
			]
		},
		{
			"name":"model_5",
			"primitives":[
				{
					"attributes":{
						"POSITION":19,
						"NORMAL":20,
						"TEXCOORD_0":21
					},
					"indices":22,
					"material":4
				}
			]
		},
		{
			"name":"model_6",
			"primitives":[
				{
					"attributes":{
						"POSITION":23,
						"NORMAL":24,
						"TEXCOORD_0":25
					},
					"indices":26,
					"material":5
				}
			]
		},
		{
			"name":"model_7",
			"primitives":[
				{
					"attributes":{
						"POSITION":27,
						"NORMAL":28
					},
					"indices":29
				}
			]
		},
		{
			"name":"model_8",
			"primitives":[
				{
					"attributes":{
						"POSITION":30,
						"NORMAL":31
					},
					"indices":32
				}
			]
		},
		{
			"name":"model_9",
			"primitives":[
				{
					"attributes":{
						"POSITION":33,
						"NORMAL":34,
						"TEXCOORD_0":35
					},
					"indices":36,
					"material":6
				}
			]
		},
		{
			"name":"model_10",
			"primitives":[
				{
					"attributes":{
						"POSITION":37,
						"NORMAL":38
					},
					"indices":39
				}
			]
		},
		{
			"name":"model_11",
			"primitives":[
				{
					"attributes":{
						"POSITION":40,
						"NORMAL":41
					},
					"indices":42
				}
			]
		},
		{
			"name":"model_12",
			"primitives":[
				{
					"attributes":{
						"POSITION":43,
						"NORMAL":44
					},
					"indices":45,
					"material":7
				}
			]
		}
	],
	"textures":[
		{
			"sampler":0,
			"source":0
		},
		{
			"sampler":0,
			"source":1
		},
		{
			"sampler":0,
			"source":2
		},
		{
			"sampler":0,
			"source":3
		},
		{
			"sampler":0,
			"source":4
		},
		{
			"sampler":0,
			"source":5
		},
		{
			"sampler":0,
			"source":6
		}
	],
	"images":[
		{
			"mimeType":"image/png",
			"name":"aiStandardSurface38_Base_color_1001",
			"uri":"aiStandardSurface38_Base_color_1001.png"
		},
		{
			"mimeType":"image/png",
			"name":"aiStandardSurface31_Base_color_1001",
			"uri":"aiStandardSurface31_Base_color_1001.png"
		},
		{
			"mimeType":"image/png",
			"name":"aiStandardSurface32_Base_color_1001",
			"uri":"aiStandardSurface32_Base_color_1001.png"
		},
		{
			"mimeType":"image/png",
			"name":"aiStandardSurface33_Base_color_1001",
			"uri":"aiStandardSurface33_Base_color_1001.png"
		},
		{
			"mimeType":"image/png",
			"name":"aiStandardSurface39_Base_color_1001",
			"uri":"aiStandardSurface39_Base_color_1001.png"
		},
		{
			"mimeType":"image/png",
			"name":"aiStandardSurface34_Base_color_1001",
			"uri":"aiStandardSurface34_Base_color_1001.png"
		},
		{
			"mimeType":"image/png",
			"name":"Steer_new",
			"uri":"Steer_new.png"
		}
	],
	"accessors":[
		{
			"bufferView":0,
			"componentType":5126,
			"count":50045,
			"max":[
				1.350519061088562,
				5.302978515625,
				0.28257399797439575
			],
			"min":[
				-1.3193000555038452,
				-4.367687702178955,
				-1.4691544771194458
			],
			"type":"VEC3"
		},
		{
			"bufferView":1,
			"componentType":5126,
			"count":50045,
			"type":"VEC3"
		},
		{
			"bufferView":2,
			"componentType":5126,
			"count":50045,
			"type":"VEC2"
		},
		{
			"bufferView":3,
			"componentType":5123,
			"count":128625,
			"type":"SCALAR"
		},
		{
			"bufferView":4,
			"componentType":5126,
			"count":72215,
			"max":[
				1.7732583284378052,
				5.275298118591309,
				0.5163030028343201
			],
			"min":[
				-1.7775161266326904,
				-4.650474548339844,
				-1.0786598920822144
			],
			"type":"VEC3"
		},
		{
			"bufferView":5,
			"componentType":5126,
			"count":72215,
			"type":"VEC3"
		},
		{
			"bufferView":6,
			"componentType":5126,
			"count":72215,
			"type":"VEC2"
		},
		{
			"bufferView":7,
			"componentType":5125,
			"count":192348,
			"type":"SCALAR"
		},
		{
			"bufferView":8,
			"componentType":5126,
			"count":2478,
			"max":[
				1.510443091392517,
				4.84503698348999,
				0.30723440647125244
			],
			"min":[
				-1.5158066749572754,
				3.7806360721588135,
				0.003046291181817651
			],
			"type":"VEC3"
		},
		{
			"bufferView":9,
			"componentType":5126,
			"count":2478,
			"type":"VEC3"
		},
		{
			"bufferView":10,
			"componentType":5123,
			"count":3900,
			"type":"SCALAR"
		},
		{
			"bufferView":11,
			"componentType":5126,
			"count":65188,
			"max":[
				1.8127549886703491,
				3.4291718006134033,
				0.6590065360069275
			],
			"min":[
				-1.8164697885513306,
				-4.103606700897217,
				-0.6160352230072021
			],
			"type":"VEC3"
		},
		{
			"bufferView":12,
			"componentType":5126,
			"count":65188,
			"type":"VEC3"
		},
		{
			"bufferView":13,
			"componentType":5126,
			"count":65188,
			"type":"VEC2"
		},
		{
			"bufferView":14,
			"componentType":5123,
			"count":134952,
			"type":"SCALAR"
		},
		{
			"bufferView":15,
			"componentType":5126,
			"count":42349,
			"max":[
				1.5960893630981445,
				3.363222599029541,
				0.5373573899269104
			],
			"min":[
				-1.599804162979126,
				-3.9059371948242188,
				-0.6859464049339294
			],
			"type":"VEC3"
		},
		{
			"bufferView":16,
			"componentType":5126,
			"count":42349,
			"type":"VEC3"
		},
		{
			"bufferView":17,
			"componentType":5126,
			"count":42349,
			"type":"VEC2"
		},
		{
			"bufferView":18,
			"componentType":5123,
			"count":99102,
			"type":"SCALAR"
		},
		{
			"bufferView":19,
			"componentType":5126,
			"count":25396,
			"max":[
				1.4172066450119019,
				3.3742334842681885,
				0.5373576283454895
			],
			"min":[
				-1.4232656955718994,
				-0.09099379926919937,
				-0.7885552644729614
			],
			"type":"VEC3"
		},
		{
			"bufferView":20,
			"componentType":5126,
			"count":25396,
			"type":"VEC3"
		},
		{
			"bufferView":21,
			"componentType":5126,
			"count":25396,
			"type":"VEC2"
		},
		{
			"bufferView":22,
			"componentType":5123,
			"count":49698,
			"type":"SCALAR"
		},
		{
			"bufferView":23,
			"componentType":5126,
			"count":18267,
			"max":[
				1.012724757194519,
				-2.323439836502075,
				0.36594799160957336
			],
			"min":[
				-1.022099494934082,
				-4.78587007522583,
				-1.1337287425994873
			],
			"type":"VEC3"
		},
		{
			"bufferView":24,
			"componentType":5126,
			"count":18267,
			"type":"VEC3"
		},
		{
			"bufferView":25,
			"componentType":5126,
			"count":18267,
			"type":"VEC2"
		},
		{
			"bufferView":26,
			"componentType":5123,
			"count":40206,
			"type":"SCALAR"
		},
		{
			"bufferView":27,
			"componentType":5126,
			"count":221,
			"max":[
				0.05479828268289566,
				2.600313663482666,
				-0.520128071308136
			],
			"min":[
				-0.05041825771331787,
				2.4257843494415283,
				-0.7768722772598267
			],
			"type":"VEC3"
		},
		{
			"bufferView":28,
			"componentType":5126,
			"count":221,
			"type":"VEC3"
		},
		{
			"bufferView":29,
			"componentType":5123,
			"count":420,
			"type":"SCALAR"
		},
		{
			"bufferView":30,
			"componentType":5126,
			"count":2635,
			"max":[
				0.99747234582901,
				1.7605222463607788,
				0.36396995186805725
			],
			"min":[
				-0.9797919988632202,
				-2.292949676513672,
				-1.0197776556015015
			],
			"type":"VEC3"
		},
		{
			"bufferView":31,
			"componentType":5126,
			"count":2635,
			"type":"VEC3"
		},
		{
			"bufferView":32,
			"componentType":5123,
			"count":4812,
			"type":"SCALAR"
		},
		{
			"bufferView":33,
			"componentType":5126,
			"count":32287,
			"max":[
				0.2186199128627777,
				0.9977912306785583,
				-0.3800371587276459
			],
			"min":[
				-0.2072789967060089,
				0.9046392440795898,
				-0.6213849186897278
			],
			"type":"VEC3"
		},
		{
			"bufferView":34,
			"componentType":5126,
			"count":32287,
			"type":"VEC3"
		},
		{
			"bufferView":35,
			"componentType":5126,
			"count":32287,
			"type":"VEC2"
		},
		{
			"bufferView":36,
			"componentType":5123,
			"count":60738,
			"type":"SCALAR"
		},
		{
			"bufferView":37,
			"componentType":5126,
			"count":662,
			"max":[
				0.1360519528388977,
				1.2612541913986206,
				-0.40627989172935486
			],
			"min":[
				-0.13637100160121918,
				1.1921501159667969,
				-0.5162990689277649
			],
			"type":"VEC3"
		},
		{
			"bufferView":38,
			"componentType":5126,
			"count":662,
			"type":"VEC3"
		},
		{
			"bufferView":39,
			"componentType":5123,
			"count":1602,
			"type":"SCALAR"
		},
		{
			"bufferView":40,
			"componentType":5126,
			"count":87,
			"max":[
				0.07649870961904526,
				-4.777183532714844,
				0.16591699421405792
			],
			"min":[
				-0.10113999992609024,
				-4.79000997543335,
				-0.06701242923736572
			],
			"type":"VEC3"
		},
		{
			"bufferView":41,
			"componentType":5126,
			"count":87,
			"type":"VEC3"
		},
		{
			"bufferView":42,
			"componentType":5123,
			"count":144,
			"type":"SCALAR"
		},
		{
			"bufferView":43,
			"componentType":5126,
			"count":719,
			"max":[
				1.0222125053405762,
				-4.625661373138428,
				0.10526303946971893
			],
			"min":[
				-1.0306445360183716,
				-4.8005805015563965,
				-0.7674177289009094
			],
			"type":"VEC3"
		},
		{
			"bufferView":44,
			"componentType":5126,
			"count":719,
			"type":"VEC3"
		},
		{
			"bufferView":45,
			"componentType":5123,
			"count":1056,
			"type":"SCALAR"
		}
	],
	"bufferViews":[
		{
			"buffer":0,
			"byteLength":600540,
			"byteOffset":0,
			"target":34962
		},
		{
			"buffer":0,
			"byteLength":600540,
			"byteOffset":600540,
			"target":34962
		},
		{
			"buffer":0,
			"byteLength":400360,
			"byteOffset":1201080,
			"target":34962
		},
		{
			"buffer":0,
			"byteLength":257250,
			"byteOffset":1601440,
			"target":34963
		},
		{
			"buffer":0,
			"byteLength":866580,
			"byteOffset":1858692,
			"target":34962
		},
		{
			"buffer":0,
			"byteLength":866580,
			"byteOffset":2725272,
			"target":34962
		},
		{
			"buffer":0,
			"byteLength":577720,
			"byteOffset":3591852,
			"target":34962
		},
		{
			"buffer":0,
			"byteLength":769392,
			"byteOffset":4169572,
			"target":34963
		},
		{
			"buffer":0,
			"byteLength":29736,
			"byteOffset":4938964,
			"target":34962
		},
		{
			"buffer":0,
			"byteLength":29736,
			"byteOffset":4968700,
			"target":34962
		},
		{
			"buffer":0,
			"byteLength":7800,
			"byteOffset":4998436,
			"target":34963
		},
		{
			"buffer":0,
			"byteLength":782256,
			"byteOffset":5006236,
			"target":34962
		},
		{
			"buffer":0,
			"byteLength":782256,
			"byteOffset":5788492,
			"target":34962
		},
		{
			"buffer":0,
			"byteLength":521504,
			"byteOffset":6570748,
			"target":34962
		},
		{
			"buffer":0,
			"byteLength":269904,
			"byteOffset":7092252,
			"target":34963
		},
		{
			"buffer":0,
			"byteLength":508188,
			"byteOffset":7362156,
			"target":34962
		},
		{
			"buffer":0,
			"byteLength":508188,
			"byteOffset":7870344,
			"target":34962
		},
		{
			"buffer":0,
			"byteLength":338792,
			"byteOffset":8378532,
			"target":34962
		},
		{
			"buffer":0,
			"byteLength":198204,
			"byteOffset":8717324,
			"target":34963
		},
		{
			"buffer":0,
			"byteLength":304752,
			"byteOffset":8915528,
			"target":34962
		},
		{
			"buffer":0,
			"byteLength":304752,
			"byteOffset":9220280,
			"target":34962
		},
		{
			"buffer":0,
			"byteLength":203168,
			"byteOffset":9525032,
			"target":34962
		},
		{
			"buffer":0,
			"byteLength":99396,
			"byteOffset":9728200,
			"target":34963
		},
		{
			"buffer":0,
			"byteLength":219204,
			"byteOffset":9827596,
			"target":34962
		},
		{
			"buffer":0,
			"byteLength":219204,
			"byteOffset":10046800,
			"target":34962
		},
		{
			"buffer":0,
			"byteLength":146136,
			"byteOffset":10266004,
			"target":34962
		},
		{
			"buffer":0,
			"byteLength":80412,
			"byteOffset":10412140,
			"target":34963
		},
		{
			"buffer":0,
			"byteLength":2652,
			"byteOffset":10492552,
			"target":34962
		},
		{
			"buffer":0,
			"byteLength":2652,
			"byteOffset":10495204,
			"target":34962
		},
		{
			"buffer":0,
			"byteLength":840,
			"byteOffset":10497856,
			"target":34963
		},
		{
			"buffer":0,
			"byteLength":31620,
			"byteOffset":10498696,
			"target":34962
		},
		{
			"buffer":0,
			"byteLength":31620,
			"byteOffset":10530316,
			"target":34962
		},
		{
			"buffer":0,
			"byteLength":9624,
			"byteOffset":10561936,
			"target":34963
		},
		{
			"buffer":0,
			"byteLength":387444,
			"byteOffset":10571560,
			"target":34962
		},
		{
			"buffer":0,
			"byteLength":387444,
			"byteOffset":10959004,
			"target":34962
		},
		{
			"buffer":0,
			"byteLength":258296,
			"byteOffset":11346448,
			"target":34962
		},
		{
			"buffer":0,
			"byteLength":121476,
			"byteOffset":11604744,
			"target":34963
		},
		{
			"buffer":0,
			"byteLength":7944,
			"byteOffset":11726220,
			"target":34962
		},
		{
			"buffer":0,
			"byteLength":7944,
			"byteOffset":11734164,
			"target":34962
		},
		{
			"buffer":0,
			"byteLength":3204,
			"byteOffset":11742108,
			"target":34963
		},
		{
			"buffer":0,
			"byteLength":1044,
			"byteOffset":11745312,
			"target":34962
		},
		{
			"buffer":0,
			"byteLength":1044,
			"byteOffset":11746356,
			"target":34962
		},
		{
			"buffer":0,
			"byteLength":288,
			"byteOffset":11747400,
			"target":34963
		},
		{
			"buffer":0,
			"byteLength":8628,
			"byteOffset":11747688,
			"target":34962
		},
		{
			"buffer":0,
			"byteLength":8628,
			"byteOffset":11756316,
			"target":34962
		},
		{
			"buffer":0,
			"byteLength":2112,
			"byteOffset":11764944,
			"target":34963
		}
	],
	"samplers":[
		{
			"magFilter":9729,
			"minFilter":9987
		}
	],
	"buffers":[
		{
			"byteLength":11767056,
			"uri":"rb20.bin"
		}
	]
}
