{
	"asset":{
		"generator":"Khronos glTF Blender I/O v4.5.48",
		"version":"2.0"
	},
	"scene":0,
	"scenes":[
		{
			"name":"Scene",
			"nodes":[
				0
			]
		}
	],
	"nodes":[
		{
			"mesh":0,
			"name":"CoTA"
		}
	],
	"meshes":[
		{
			"name":"CoTA",
			"primitives":[
				{
					"attributes":{
						"POSITION":0,
						"NORMAL":1
					},
					"indices":2
				}
			]
		}
	],
	"accessors":[
		{
			"bufferView":0,
			"componentType":5126,
			"count":2494,
			"max":[
				77.96369934082031,
				18.03219985961914,
				45.12409973144531
			],
			"min":[
				-77.9208984375,
				0,
				-45.01850128173828
			],
			"type":"VEC3"
		},
		{
			"bufferView":1,
			"componentType":5126,
			"count":2494,
			"type":"VEC3"
		},
		{
			"bufferView":2,
			"componentType":5123,
			"count":3732,
			"type":"SCALAR"
		}
	],
	"bufferViews":[
		{
			"buffer":0,
			"byteLength":29928,
			"byteOffset":0,
			"target":34962
		},
		{
			"buffer":0,
			"byteLength":29928,
			"byteOffset":29928,
			"target":34962
		},
		{
			"buffer":0,
			"byteLength":7464,
			"byteOffset":59856,
			"target":34963
		}
	],
	"buffers":[
		{
			"byteLength":67320,
			"uri":"f1-track.bin"
		}
	]
}
