{
	"asset":{
		"generator":"Khronos glTF Blender I/O v4.5.48",
		"version":"2.0"
	},
	"extensionsUsed":[
		"KHR_materials_specular",
		"KHR_materials_ior"
	],
	"scene":0,
	"scenes":[
		{
			"name":"Scene",
			"nodes":[
				0,
				1,
				2
			]
		}
	],
	"nodes":[
		{
			"mesh":0,
			"name":"CoTA",
			"rotation":[
				0,
				0,
				-1,
				4.371138473402425e-08
			],
			"scale":[
				0.38368403911590576,
				0.38368403911590576,
				0.38368403911590576
			],
			"translation":[
				3.3034229278564453,
				0.7122726440429688,
				3.978794574737549
			]
		},
		{
			"mesh":1,
			"name":"Formula_1.001",
			"rotation":[
				0.09670652449131012,
				0.6956053972244263,
				-0.7092568278312683,
				0.06112058460712433
			],
			"scale":[
				0.0019068197580054402,
				0.0019068197580054402,
				0.0019068197580054402
			],
			"translation":[
				-1.0664781332015991,
				0.7380474209785461,
				-1.2539637088775635
			]
		},
		{
			"mesh":2,
			"name":"Formula_1.002",
			"rotation":[
				-0.009702682495117188,
				-0.6978743672370911,
				0.7157536149024963,
				0.02395816147327423
			],
			"scale":[
				0.0019068197580054402,
				0.0019068197580054402,
				0.0019068197580054402
			],
			"translation":[
				-2.2269694805145264,
				0.717003345489502,
				-1.1775879859924316
			]
		}
	],
	"animations":[
		{
			"channels":[
				{
					"sampler":0,
					"target":{
						"node":1,
						"path":"translation"
					}
				},
				{
					"sampler":1,
					"target":{
						"node":1,
						"path":"rotation"
					}
				},
				{
					"sampler":2,
					"target":{
						"node":1,
						"path":"scale"
					}
				}
			],
			"name":"Formula_1.001Action",
			"samplers":[
				{
					"input":24,
					"interpolation":"LINEAR",
					"output":25
				},
				{
					"input":24,
					"interpolation":"LINEAR",
					"output":26
				},
				{
					"input":27,
					"interpolation":"STEP",
					"output":28
				}
			]
		},
		{
			"channels":[
				{
					"sampler":0,
					"target":{
						"node":2,
						"path":"translation"
					}
				},
				{
					"sampler":1,
					"target":{
						"node":2,
						"path":"rotation"
					}
				},
				{
					"sampler":2,
					"target":{
						"node":2,
						"path":"scale"
					}
				}
			],
			"name":"Formula_1.002Action",
			"samplers":[
				{
					"input":29,
					"interpolation":"LINEAR",
					"output":30
				},
				{
					"input":29,
					"interpolation":"LINEAR",
					"output":31
				},
				{
					"input":32,
					"interpolation":"STEP",
					"output":33
				}
			]
		}
	],
	"materials":[
		{
			"doubleSided":true,
			"extensions":{
				"KHR_materials_ior":{
					"ior":1
				}
			},
			"name":"Mat.001",
			"pbrMetallicRoughness":{
				"roughnessFactor":0.7763931751251221
			}
		},
		{
			"doubleSided":true,
			"extensions":{
				"KHR_materials_specular":{
					"specularColorFactor":[
						2.0,
						2.0,
						2.0
					]
				},
				"KHR_materials_ior":{
					"ior":1
				}
			},
			"name":"Mirrors.001",
			"pbrMetallicRoughness":{
				"roughnessFactor":0.6837722063064575
			}
		},
		{
			"doubleSided":true,
			"extensions":{
				"KHR_materials_specular":{
					"specularFactor":0
				},
				"KHR_materials_ior":{
					"ior":1
				}
			},
			"name":"Fillers.001",
			"pbrMetallicRoughness":{
				"baseColorFactor":[
					0,
					0,
					0,
					1
				]
			}
		},
		{
			"doubleSided":true,
			"extensions":{
				"KHR_materials_ior":{
					"ior":1
				}
			},
			"name":"Mat.002",
			"pbrMetallicRoughness":{
				"roughnessFactor":0.7763931751251221
			}
		},
		{
			"doubleSided":true,
			"extensions":{
				"KHR_materials_specular":{
					"specularColorFactor":[
						2.0,
						2.0,
						2.0
					]
				},
				"KHR_materials_ior":{
					"ior":1
				}
			},
			"name":"Mirrors.002",
			"pbrMetallicRoughness":{
				"roughnessFactor":0.6837722063064575
			}
		},
		{
			"doubleSided":true,
			"extensions":{
				"KHR_materials_specular":{
					"specularFactor":0
				},
				"KHR_materials_ior":{
					"ior":1
				}
			},
			"name":"Fillers.002",
			"pbrMetallicRoughness":{
				"baseColorFactor":[
					0,
					0,
					0,
					1
				]
			}
		}
	],
	"meshes":[
		{
			"name":"CoTA",
			"primitives":[
				{
					"attributes":{
						"POSITION":0,
						"NORMAL":1
					},
					"indices":2
				}
			]
		},
		{
			"name":"Formula_1.001",
			"primitives":[
				{
					"attributes":{
						"POSITION":3,
						"NORMAL":4,
						"TEXCOORD_0":5
					},
					"indices":6,
					"material":0
				},
				{
					"attributes":{
						"POSITION":7,
						"NORMAL":8,
						"TEXCOORD_0":9
					},
					"indices":10,
					"material":1
				},
				{
					"attributes":{
						"POSITION":11,
						"NORMAL":12,
						"TEXCOORD_0":13
					},
					"indices":14,
					"material":2
				}
			]
		},
		{
			"name":"Formula_1.002",
			"primitives":[
				{
					"attributes":{
						"POSITION":15,
						"NORMAL":16,
						"TEXCOORD_0":17
					},
					"indices":6,
					"material":3
				},
				{
					"attributes":{
						"POSITION":18,
						"NORMAL":19,
						"TEXCOORD_0":20
					},
					"indices":10,
					"material":4
				},
				{
					"attributes":{
						"POSITION":21,
						"NORMAL":22,
						"TEXCOORD_0":23
					},
					"indices":14,
					"material":5
				}
			]
		}
	],
	"accessors":[
		{
			"bufferView":0,
			"componentType":5126,
			"count":2494,
			"max":[
				77.96369934082031,
				18.03219985961914,
				45.12409973144531
			],
			"min":[
				-77.9208984375,
				0,
				-45.01850128173828
			],
			"type":"VEC3"
		},
		{
			"bufferView":1,
			"componentType":5126,
			"count":2494,
			"type":"VEC3"
		},
		{
			"bufferView":2,
			"componentType":5123,
			"count":3732,
			"type":"SCALAR"
		},
		{
			"bufferView":3,
			"componentType":5126,
			"count":71969,
			"max":[
				247.64625549316406,
				93.3197250366211,
				0.8430380821228027
			],
			"min":[
				-249.0139923095703,
				-93.3176040649414,
				-107.79261779785156
			],
			"type":"VEC3"
		},
		{
			"bufferView":4,
			"componentType":5126,
			"count":71969,
			"type":"VEC3"
		},
		{
			"bufferView":5,
			"componentType":5126,
			"count":71969,
			"type":"VEC2"
		},
		{
			"bufferView":6,
			"componentType":5125,
			"count":349098,
			"type":"SCALAR"
		},
		{
			"bufferView":7,
			"componentType":5126,
			"count":228,
			"max":[
				-40.841941833496094,
				41.91416931152344,
				-74.8694839477539
			],
			"min":[
				-47.81675338745117,
				-41.91204071044922,
				-79.54241180419922
			],
			"type":"VEC3"
		},
		{
			"bufferView":8,
			"componentType":5126,
			"count":228,
			"type":"VEC3"
		},
		{
			"bufferView":9,
			"componentType":5126,
			"count":228,
			"type":"VEC2"
		},
		{
			"bufferView":10,
			"componentType":5123,
			"count":1104,
			"type":"SCALAR"
		},
		{
			"bufferView":11,
			"componentType":5126,
			"count":2192,
			"max":[
				201.53533935546875,
				83.46453094482422,
				-10.387395858764648
			],
			"min":[
				-160.08441162109375,
				-83.46240234375,
				-98.96087646484375
			],
			"type":"VEC3"
		},
		{
			"bufferView":12,
			"componentType":5126,
			"count":2192,
			"type":"VEC3"
		},
		{
			"bufferView":13,
			"componentType":5126,
			"count":2192,
			"type":"VEC2"
		},
		{
			"bufferView":14,
			"componentType":5123,
			"count":12366,
			"type":"SCALAR"
		},
		{
			"bufferView":15,
			"componentType":5126,
			"count":71969,
			"max":[
				247.64625549316406,
				93.3197250366211,
				0.8430380821228027
			],
			"min":[
				-249.0139923095703,
				-93.3176040649414,
				-107.79261779785156
			],
			"type":"VEC3"
		},
		{
			"bufferView":16,
			"componentType":5126,
			"count":71969,
			"type":"VEC3"
		},
		{
			"bufferView":17,
			"componentType":5126,
			"count":71969,
			"type":"VEC2"
		},
		{
			"bufferView":18,
			"componentType":5126,
			"count":228,
			"max":[
				-40.841941833496094,
				41.91416931152344,
				-74.8694839477539
			],
			"min":[
				-47.81675338745117,
				-41.91204071044922,
				-79.54241180419922
			],
			"type":"VEC3"
		},
		{
			"bufferView":19,
			"componentType":5126,
			"count":228,
			"type":"VEC3"
		},
		{
			"bufferView":20,
			"componentType":5126,
			"count":228,
			"type":"VEC2"
		},
		{
			"bufferView":21,
			"componentType":5126,
			"count":2192,
			"max":[
				201.53533935546875,
				83.46453094482422,
				-10.387395858764648
			],
			"min":[
				-160.08441162109375,
				-83.46240234375,
				-98.96087646484375
			],
			"type":"VEC3"
		},
		{
			"bufferView":22,
			"componentType":5126,
			"count":2192,
			"type":"VEC3"
		},
		{
			"bufferView":23,
			"componentType":5126,
			"count":2192,
			"type":"VEC2"
		},
		{
			"bufferView":24,
			"componentType":5126,
			"count":227,
			"max":[
				9.416666666666666
			],
			"min":[
				0
			],
			"type":"SCALAR"
		},
		{
			"bufferView":25,
			"componentType":5126,
			"count":227,
			"type":"VEC3"
		},
		{
			"bufferView":26,
			"componentType":5126,
			"count":227,
			"type":"VEC4"
		},
		{
			"bufferView":27,
			"componentType":5126,
			"count":2,
			"max":[
				9.416666666666666
			],
			"min":[
				0
			],
			"type":"SCALAR"
		},
		{
			"bufferView":28,
			"componentType":5126,
			"count":2,
			"type":"VEC3"
		},
		{
			"bufferView":29,
			"componentType":5126,
			"count":226,
			"max":[
				9.375
			],
			"min":[
				0
			],
			"type":"SCALAR"
		},
		{
			"bufferView":30,
			"componentType":5126,
			"count":226,
			"type":"VEC3"
		},
		{
			"bufferView":31,
			"componentType":5126,
			"count":226,
			"type":"VEC4"
		},
		{
			"bufferView":32,
			"componentType":5126,
			"count":2,
			"max":[
				9.375
			],
			"min":[
				0
			],
			"type":"SCALAR"
		},
		{
			"bufferView":33,
			"componentType":5126,
			"count":2,
			"type":"VEC3"
		}
	],
	"bufferViews":[
		{
			"buffer":0,
			"byteLength":29928,
			"byteOffset":0,
			"target":34962
		},
		{
			"buffer":0,
			"byteLength":29928,
			"byteOffset":29928,
			"target":34962
		},
		{
			"buffer":0,
			"byteLength":7464,
			"byteOffset":59856,
			"target":34963
		},
		{
			"buffer":0,
			"byteLength":863628,
			"byteOffset":67320,
			"target":34962
		},
		{
			"buffer":0,
			"byteLength":863628,
			"byteOffset":930948,
			"target":34962
		},
		{
			"buffer":0,
			"byteLength":575752,
			"byteOffset":1794576,
			"target":34962
		},
		{
			"buffer":0,
			"byteLength":1396392,
			"byteOffset":2370328,
			"target":34963
		},
		{
			"buffer":0,
			"byteLength":2736,
			"byteOffset":3766720,
			"target":34962
		},
		{
			"buffer":0,
			"byteLength":2736,
			"byteOffset":3769456,
			"target":34962
		},
		{
			"buffer":0,
			"byteLength":1824,
			"byteOffset":3772192,
			"target":34962
		},
		{
			"buffer":0,
			"byteLength":2208,
			"byteOffset":3774016,
			"target":34963
		},
		{
			"buffer":0,
			"byteLength":26304,
			"byteOffset":3776224,
			"target":34962
		},
		{
			"buffer":0,
			"byteLength":26304,
			"byteOffset":3802528,
			"target":34962
		},
		{
			"buffer":0,
			"byteLength":17536,
			"byteOffset":3828832,
			"target":34962
		},
		{
			"buffer":0,
			"byteLength":24732,
			"byteOffset":3846368,
			"target":34963
		},
		{
			"buffer":0,
			"byteLength":863628,
			"byteOffset":3871100,
			"target":34962
		},
		{
			"buffer":0,
			"byteLength":863628,
			"byteOffset":4734728,
			"target":34962
		},
		{
			"buffer":0,
			"byteLength":575752,
			"byteOffset":5598356,
			"target":34962
		},
		{
			"buffer":0,
			"byteLength":2736,
			"byteOffset":6174108,
			"target":34962
		},
		{
			"buffer":0,
			"byteLength":2736,
			"byteOffset":6176844,
			"target":34962
		},
		{
			"buffer":0,
			"byteLength":1824,
			"byteOffset":6179580,
			"target":34962
		},
		{
			"buffer":0,
			"byteLength":26304,
			"byteOffset":6181404,
			"target":34962
		},
		{
			"buffer":0,
			"byteLength":26304,
			"byteOffset":6207708,
			"target":34962
		},
		{
			"buffer":0,
			"byteLength":17536,
			"byteOffset":6234012,
			"target":34962
		},
		{
			"buffer":0,
			"byteLength":908,
			"byteOffset":6251548
		},
		{
			"buffer":0,
			"byteLength":2724,
			"byteOffset":6252456
		},
		{
			"buffer":0,
			"byteLength":3632,
			"byteOffset":6255180
		},
		{
			"buffer":0,
			"byteLength":8,
			"byteOffset":6258812
		},
		{
			"buffer":0,
			"byteLength":24,
			"byteOffset":6258820
		},
		{
			"buffer":0,
			"byteLength":904,
			"byteOffset":6258844
		},
		{
			"buffer":0,
			"byteLength":2712,
			"byteOffset":6259748
		},
		{
			"buffer":0,
			"byteLength":3616,
			"byteOffset":6262460
		},
		{
			"buffer":0,
			"byteLength":8,
			"byteOffset":6266076
		},
		{
			"buffer":0,
			"byteLength":24,
			"byteOffset":6266084
		}
	],
	"buffers":[
		{
			"byteLength":6266108,
			"uri":"f1-track.bin"
		}
	]
}
